<svg version="1.1" id="Layer_1" xmlns="http://www.w3.org/2000/svg" xmlns:xlink="http://www.w3.org/1999/xlink" x="0px" y="0px"
	 width="100%" viewBox="0 0 1024 1024" enable-background="new 0 0 1024 1024" xml:space="preserve">
<rect width="1024" height="1024" fill="#FFFFFF"/>
<path fill="#000000" opacity="1.000000" stroke="none" 
	d="
M401.999878,940.382324 
	C325.001740,940.382568 248.503616,940.385803 172.005493,940.379028 
	C161.452103,940.378113 158.522842,936.476257 160.257355,926.002625 
	C164.356689,901.249146 169.036728,876.637207 175.621216,852.398071 
	C185.614685,815.609497 202.498184,783.081543 231.595428,757.446838 
	C255.318985,736.546448 282.592194,721.926819 311.414368,709.690247 
	C331.192932,701.293091 351.640137,694.668091 371.568634,686.677185 
	C372.804382,686.181702 373.996948,685.562256 375.258301,685.149353 
	C395.244934,678.607422 401.975311,663.336670 402.752960,643.912720 
	C403.005463,637.605286 403.905975,631.329590 403.648926,624.983398 
	C403.492676,621.126099 402.199829,618.106995 399.271515,615.364258 
	C370.596558,588.506714 353.245392,555.419739 345.736572,517.025696 
	C345.242401,514.498779 344.750641,512.525940 341.662231,512.393860 
	C324.591797,511.663788 313.059570,501.927032 304.998138,488.130066 
	C293.122864,467.805908 289.626160,445.719696 294.965149,422.672028 
	C297.598175,411.305511 303.903137,401.811035 313.463989,394.996399 
	C316.883026,392.559418 317.232025,390.346344 316.221497,386.715851 
	C310.574402,366.427490 307.144104,345.731995 307.845551,324.662201 
	C310.464996,245.977081 347.815338,189.318954 417.735901,154.027939 
	C440.932800,142.319809 465.694916,135.582870 491.775574,133.442566 
	C531.906799,130.149185 570.030029,135.936249 605.489258,155.978775 
	C624.789124,166.887589 639.926758,182.070282 652.116943,200.345169 
	C654.958679,204.605362 658.268188,207.808960 662.846069,210.331299 
	C687.940674,224.157806 701.493958,246.694656 709.307800,273.336639 
	C718.901917,306.048767 718.299561,338.940216 710.819031,371.926666 
	C709.570007,377.434570 708.488831,382.985992 707.042847,388.441162 
	C706.407349,390.838928 707.079041,391.972046 709.053406,393.296967 
	C725.231079,404.152802 731.873230,419.917358 732.348267,438.874939 
	C732.848877,458.851746 729.219849,477.706512 717.081665,494.098846 
	C709.125732,504.843079 699.013062,512.266907 684.916321,512.377136 
	C681.287292,512.405579 680.794556,514.734985 680.252441,517.595215 
	C674.615662,547.338501 662.975769,574.497437 644.772400,598.737915 
	C637.746643,608.093811 629.437988,616.298950 620.727783,624.075134 
	C618.300049,626.242493 617.299011,628.601135 617.257385,631.890381 
	C617.119751,642.742737 617.505371,653.426208 620.949097,663.922791 
	C624.242493,673.961243 630.280273,681.024414 640.211548,684.716125 
	C659.242126,691.790222 678.389893,698.569153 697.263794,706.039734 
	C728.045715,718.223572 757.383057,733.095276 783.397705,753.950012 
	C814.653442,779.006348 833.482971,811.658142 843.374390,850.085632 
	C849.921204,875.519348 855.147827,901.215698 860.055542,926.991028 
	C861.785461,936.076416 858.022522,940.361511 848.488525,940.362244 
	C699.825684,940.373535 551.162781,940.377014 401.999878,940.382324 
M335.344055,415.168518 
	C330.333588,406.712555 325.580017,406.218414 318.867676,413.532867 
	C314.942932,417.809631 312.399719,422.871735 311.418976,428.563141 
	C308.536835,445.288544 310.702301,461.405640 318.218079,476.623077 
	C324.785400,489.920197 334.630249,495.849915 347.064880,494.626617 
	C357.232056,493.626343 358.310822,494.194946 360.351349,504.365814 
	C367.884033,541.911621 383.533264,574.623474 410.397919,603.012817 
	C435.315430,629.344604 494.971008,654.116638 536.276733,644.993713 
	C594.038696,632.236145 633.490112,599.339783 654.585938,544.214783 
	C659.654907,530.969055 662.527039,517.127808 665.677246,503.359558 
	C667.667603,494.660217 669.586731,493.392639 678.393860,494.585785 
	C688.948059,496.015594 697.196167,492.373077 703.535522,483.726990 
	C711.257935,473.194489 713.696777,461.053650 714.553650,448.515961 
	C715.141663,439.911835 715.489258,431.192413 711.843201,422.934784 
	C709.197449,416.942657 705.403992,412.026459 699.414062,409.157288 
	C695.585449,407.323364 693.725159,408.430634 693.429199,412.652893 
	C693.196472,415.973602 693.315186,419.317200 692.299866,422.545776 
	C691.038269,426.557556 688.370056,428.494293 684.112366,428.410614 
	C679.967468,428.329163 677.692627,426.103149 676.648132,422.335236 
	C676.293518,421.056091 675.963867,419.739807 675.872070,418.423065 
	C675.432373,412.115265 675.011353,405.804718 674.706787,399.489227 
	C673.977600,384.367401 672.116577,369.357056 670.527588,354.315063 
	C669.859070,347.985901 666.989868,343.410339 662.644104,338.858154 
	C643.151184,318.439270 625.427734,296.607483 611.639832,271.814514 
	C610.944580,270.564484 610.537109,268.938232 608.408142,268.705170 
	C605.471924,271.120392 602.473694,273.754852 599.305603,276.166199 
	C572.854370,296.298737 542.523865,307.967743 510.760345,316.352081 
	C469.947266,327.125153 428.281372,330.715210 386.212494,330.256226 
	C381.228058,330.201874 378.667267,332.049377 376.592865,336.245239 
	C370.213745,349.148010 365.629395,362.633026 362.281036,376.612122 
	C358.596283,391.995575 356.979889,407.709015 354.404388,423.268433 
	C353.693665,427.562286 350.981964,429.810333 347.027985,430.167236 
	C342.879791,430.541626 340.072205,428.126312 338.851685,424.209900 
	C337.958618,421.344177 337.228668,418.439636 335.344055,415.168518 
M581.919128,732.385254 
	C596.826721,724.248413 608.977722,713.109619 618.410522,698.982361 
	C619.874634,696.789551 621.138123,694.987671 618.528809,692.528381 
	C608.938232,683.489380 604.296692,671.876038 601.554565,659.269409 
	C600.193115,653.010559 599.692688,646.647583 599.384644,639.722656 
	C538.993530,674.071045 480.120667,672.160217 421.525238,635.474487 
	C418.875427,657.450745 417.227997,679.416748 397.912781,693.915466 
	C398.399323,694.889954 398.663116,695.492004 398.988220,696.058838 
	C409.851379,714.999084 426.048553,727.916199 445.673462,736.690918 
	C471.160583,748.086853 497.921295,751.497742 525.629822,748.860107 
	C545.233093,746.994019 563.889099,742.138672 581.919128,732.385254 
z"/>
<path fill="#000000" opacity="1.000000" stroke="none" 
	d="
M558.280151,582.935669 
	C554.730286,582.253540 552.636658,580.071167 550.733582,577.746948 
	C533.626404,556.854614 497.221954,557.502930 480.636139,578.381042 
	C476.286438,583.856384 471.851929,584.470764 467.770844,581.082581 
	C463.711731,577.712646 463.394073,571.462708 467.530731,566.798828 
	C480.443787,552.240112 496.371368,544.388916 516.200806,544.402954 
	C534.633850,544.416077 549.785950,551.357666 562.572388,564.204102 
	C563.392700,565.028320 564.173279,565.905884 564.874390,566.832764 
	C570.378967,574.109741 567.644592,581.206726 558.280151,582.935669 
z"/>
<path fill="#000000" opacity="1.000000" stroke="none" 
	d="
M519.141296,495.976379 
	C532.224854,494.032776 533.863892,491.458710 530.141113,479.119019 
	C527.921021,471.760315 524.718506,464.818298 521.233093,457.981995 
	C518.236572,452.104767 519.368774,446.788513 523.867004,444.445984 
	C528.546387,442.009064 533.491272,443.862579 536.728760,449.561676 
	C543.614502,461.683044 548.559570,474.522827 549.870972,488.500336 
	C550.600098,496.272003 547.263916,502.374939 540.958984,506.895813 
	C533.055176,512.563110 523.694092,513.641602 514.506958,514.912842 
	C510.048279,515.529846 505.327972,510.809875 504.835358,506.390076 
	C504.363586,502.157043 508.321442,497.631348 513.304443,496.780365 
	C515.101135,496.473511 516.921997,496.308472 519.141296,495.976379 
z"/>
<path fill="#000000" opacity="1.000000" stroke="none" 
	d="
M456.062256,378.234314 
	C442.824158,383.969116 429.493622,387.880402 415.362610,388.280548 
	C409.083740,388.458313 405.321411,385.495972 404.720184,380.713837 
	C404.063934,375.494049 407.494843,371.334381 413.516327,370.807953 
	C432.810608,369.121185 450.484467,363.284088 466.084045,351.491455 
	C470.719971,347.986816 475.148041,348.491638 478.164337,351.982025 
	C481.388214,355.712555 481.050751,361.065826 476.901917,364.951233 
	C470.903290,370.568970 463.778656,374.544067 456.062256,378.234314 
z"/>
<path fill="#000000" opacity="1.000000" stroke="none" 
	d="
M591.712646,362.280945 
	C602.307129,367.015747 613.085999,369.588470 624.226685,370.677277 
	C630.972595,371.336578 634.604370,374.587830 634.305908,379.961304 
	C634.021240,385.085266 630.114685,388.611969 623.838684,388.266968 
	C601.695374,387.049713 581.564697,380.124908 564.128174,366.127319 
	C562.195374,364.575775 560.296997,362.749359 559.843079,360.154663 
	C559.211975,356.546570 559.624512,353.153687 562.953796,350.800964 
	C566.171143,348.527344 569.477783,348.419403 572.704102,350.658875 
	C578.714783,354.831085 584.590637,359.210114 591.712646,362.280945 
z"/>
<path fill="#000000" opacity="1.000000" stroke="none" 
	d="
M577.773438,419.129883 
	C582.073120,410.806854 588.328918,407.303802 595.565247,408.879822 
	C602.727051,410.439606 608.257446,417.672729 608.267090,426.021179 
	C608.272583,430.803986 609.106201,435.667511 607.268372,440.366241 
	C604.388489,447.728973 598.761353,451.636963 591.194824,451.357910 
	C584.719971,451.119141 578.949158,446.354492 577.127197,439.135254 
	C575.480530,432.610565 575.042297,425.980011 577.773438,419.129883 
z"/>
<path fill="#000000" opacity="1.000000" stroke="none" 
	d="
M430.658722,434.697083 
	C430.954010,429.781677 430.003296,425.273407 431.408630,420.862152 
	C433.850800,413.196259 439.377502,408.696838 446.556305,408.664459 
	C453.848480,408.631622 459.388123,412.919586 461.680542,420.750977 
	C463.437958,426.754578 463.571075,432.915680 461.929565,438.965057 
	C459.688934,447.222443 452.912659,452.038025 444.957184,451.332520 
	C437.466309,450.668243 431.891541,444.360443 430.658722,434.697083 
z"/>
</svg>